<mxfile host="app.diagrams.net" modified="2023-12-20T18:52:21.705Z" agent="Mozilla/5.0 (Windows NT 10.0; Win64; x64) AppleWebKit/537.36 (KHTML, like Gecko) Chrome/119.0.0.0 Safari/537.36 OPR/105.0.0.0" etag="NBevWog3Vqooi_nJ0DCA" version="22.1.11" type="github">
  <diagram name="Page-1" id="-jz4LJ3koRjgjUNIBrRv">
    <mxGraphModel dx="1073" dy="466" grid="1" gridSize="10" guides="1" tooltips="1" connect="1" arrows="1" fold="1" page="1" pageScale="1" pageWidth="850" pageHeight="1100" math="0" shadow="0">
      <root>
        <mxCell id="0" />
        <mxCell id="1" parent="0" />
        <mxCell id="qiV9-4BGO4FkPAIvBo5--1" value="" style="shape=umlLifeline;perimeter=lifelinePerimeter;whiteSpace=wrap;html=1;container=1;dropTarget=0;collapsible=0;recursiveResize=0;outlineConnect=0;portConstraint=eastwest;newEdgeStyle={&quot;curved&quot;:0,&quot;rounded&quot;:0};participant=umlActor;" vertex="1" parent="1">
          <mxGeometry x="130" y="80" width="20" height="510" as="geometry" />
        </mxCell>
        <mxCell id="qiV9-4BGO4FkPAIvBo5--11" value="" style="html=1;points=[[0,0,0,0,5],[0,1,0,0,-5],[1,0,0,0,5],[1,1,0,0,-5]];perimeter=orthogonalPerimeter;outlineConnect=0;targetShapes=umlLifeline;portConstraint=eastwest;newEdgeStyle={&quot;curved&quot;:0,&quot;rounded&quot;:0};" vertex="1" parent="qiV9-4BGO4FkPAIvBo5--1">
          <mxGeometry x="5" y="80" width="10" height="280" as="geometry" />
        </mxCell>
        <mxCell id="qiV9-4BGO4FkPAIvBo5--2" value="" style="shape=umlLifeline;perimeter=lifelinePerimeter;whiteSpace=wrap;html=1;container=1;dropTarget=0;collapsible=0;recursiveResize=0;outlineConnect=0;portConstraint=eastwest;newEdgeStyle={&quot;curved&quot;:0,&quot;rounded&quot;:0};participant=umlBoundary;" vertex="1" parent="1">
          <mxGeometry x="310" y="80" width="50" height="510" as="geometry" />
        </mxCell>
        <mxCell id="qiV9-4BGO4FkPAIvBo5--12" value="" style="html=1;points=[[0,0,0,0,5],[0,1,0,0,-5],[1,0,0,0,5],[1,1,0,0,-5]];perimeter=orthogonalPerimeter;outlineConnect=0;targetShapes=umlLifeline;portConstraint=eastwest;newEdgeStyle={&quot;curved&quot;:0,&quot;rounded&quot;:0};" vertex="1" parent="qiV9-4BGO4FkPAIvBo5--2">
          <mxGeometry x="20" y="80" width="10" height="280" as="geometry" />
        </mxCell>
        <mxCell id="qiV9-4BGO4FkPAIvBo5--3" value="" style="shape=umlLifeline;perimeter=lifelinePerimeter;whiteSpace=wrap;html=1;container=1;dropTarget=0;collapsible=0;recursiveResize=0;outlineConnect=0;portConstraint=eastwest;newEdgeStyle={&quot;curved&quot;:0,&quot;rounded&quot;:0};participant=umlEntity;" vertex="1" parent="1">
          <mxGeometry x="720" y="85" width="40" height="500" as="geometry" />
        </mxCell>
        <mxCell id="qiV9-4BGO4FkPAIvBo5--14" value="" style="html=1;points=[[0,0,0,0,5],[0,1,0,0,-5],[1,0,0,0,5],[1,1,0,0,-5]];perimeter=orthogonalPerimeter;outlineConnect=0;targetShapes=umlLifeline;portConstraint=eastwest;newEdgeStyle={&quot;curved&quot;:0,&quot;rounded&quot;:0};" vertex="1" parent="qiV9-4BGO4FkPAIvBo5--3">
          <mxGeometry x="15" y="80" width="10" height="280" as="geometry" />
        </mxCell>
        <mxCell id="qiV9-4BGO4FkPAIvBo5--5" value="" style="shape=umlLifeline;perimeter=lifelinePerimeter;whiteSpace=wrap;html=1;container=1;dropTarget=0;collapsible=0;recursiveResize=0;outlineConnect=0;portConstraint=eastwest;newEdgeStyle={&quot;curved&quot;:0,&quot;rounded&quot;:0};participant=umlControl;" vertex="1" parent="1">
          <mxGeometry x="520" y="80" width="40" height="510" as="geometry" />
        </mxCell>
        <mxCell id="qiV9-4BGO4FkPAIvBo5--13" value="" style="html=1;points=[[0,0,0,0,5],[0,1,0,0,-5],[1,0,0,0,5],[1,1,0,0,-5]];perimeter=orthogonalPerimeter;outlineConnect=0;targetShapes=umlLifeline;portConstraint=eastwest;newEdgeStyle={&quot;curved&quot;:0,&quot;rounded&quot;:0};" vertex="1" parent="qiV9-4BGO4FkPAIvBo5--5">
          <mxGeometry x="15" y="80" width="10" height="280" as="geometry" />
        </mxCell>
        <mxCell id="qiV9-4BGO4FkPAIvBo5--6" value="Player" style="text;html=1;align=center;verticalAlign=middle;resizable=0;points=[];autosize=1;strokeColor=none;fillColor=none;" vertex="1" parent="1">
          <mxGeometry x="110" y="40" width="60" height="30" as="geometry" />
        </mxCell>
        <mxCell id="qiV9-4BGO4FkPAIvBo5--7" value="Màn hình game" style="text;html=1;align=center;verticalAlign=middle;resizable=0;points=[];autosize=1;strokeColor=none;fillColor=none;" vertex="1" parent="1">
          <mxGeometry x="280" y="40" width="110" height="30" as="geometry" />
        </mxCell>
        <mxCell id="qiV9-4BGO4FkPAIvBo5--9" value="System" style="text;html=1;align=center;verticalAlign=middle;resizable=0;points=[];autosize=1;strokeColor=none;fillColor=none;" vertex="1" parent="1">
          <mxGeometry x="510" y="40" width="60" height="30" as="geometry" />
        </mxCell>
        <mxCell id="qiV9-4BGO4FkPAIvBo5--10" value="Database" style="text;html=1;align=center;verticalAlign=middle;resizable=0;points=[];autosize=1;strokeColor=none;fillColor=none;" vertex="1" parent="1">
          <mxGeometry x="705" y="40" width="70" height="30" as="geometry" />
        </mxCell>
        <mxCell id="qiV9-4BGO4FkPAIvBo5--15" value="Hạ gục quái,&lt;br&gt;hành động đạt nhiệm vụ" style="html=1;verticalAlign=bottom;endArrow=block;curved=0;rounded=0;" edge="1" parent="1">
          <mxGeometry width="80" relative="1" as="geometry">
            <mxPoint x="145" y="200" as="sourcePoint" />
            <mxPoint x="330" y="200" as="targetPoint" />
          </mxGeometry>
        </mxCell>
        <mxCell id="qiV9-4BGO4FkPAIvBo5--22" value="Gửi yêu cầu nhận thưởng" style="html=1;verticalAlign=bottom;endArrow=block;curved=0;rounded=0;" edge="1" parent="1" target="qiV9-4BGO4FkPAIvBo5--13">
          <mxGeometry width="80" relative="1" as="geometry">
            <mxPoint x="340" y="210" as="sourcePoint" />
            <mxPoint x="420" y="210" as="targetPoint" />
          </mxGeometry>
        </mxCell>
        <mxCell id="qiV9-4BGO4FkPAIvBo5--23" value="Gửi yêu cầu nhận thưởng" style="html=1;verticalAlign=bottom;endArrow=block;curved=0;rounded=0;" edge="1" parent="1">
          <mxGeometry width="80" relative="1" as="geometry">
            <mxPoint x="545" y="220" as="sourcePoint" />
            <mxPoint x="735" y="220" as="targetPoint" />
          </mxGeometry>
        </mxCell>
        <mxCell id="qiV9-4BGO4FkPAIvBo5--25" value="" style="html=1;align=left;spacingLeft=2;endArrow=block;rounded=0;edgeStyle=orthogonalEdgeStyle;curved=0;rounded=0;" edge="1" parent="1">
          <mxGeometry relative="1" as="geometry">
            <mxPoint x="745" y="260" as="sourcePoint" />
            <Array as="points">
              <mxPoint x="745" y="220" />
              <mxPoint x="775" y="220" />
              <mxPoint x="775" y="290" />
            </Array>
            <mxPoint x="750" y="290.0000000000001" as="targetPoint" />
          </mxGeometry>
        </mxCell>
        <mxCell id="qiV9-4BGO4FkPAIvBo5--26" value="Kiểm tra và cập nhật dữ liệu" style="text;html=1;align=center;verticalAlign=middle;resizable=0;points=[];autosize=1;strokeColor=none;fillColor=none;" vertex="1" parent="1">
          <mxGeometry x="770" y="238" width="170" height="30" as="geometry" />
        </mxCell>
        <mxCell id="qiV9-4BGO4FkPAIvBo5--27" value="" style="html=1;verticalAlign=bottom;endArrow=open;dashed=1;endSize=8;curved=0;rounded=0;" edge="1" parent="1">
          <mxGeometry relative="1" as="geometry">
            <mxPoint x="735.33" y="291" as="sourcePoint" />
            <mxPoint x="544.9966666666666" y="291" as="targetPoint" />
          </mxGeometry>
        </mxCell>
        <mxCell id="qiV9-4BGO4FkPAIvBo5--28" value="Xác định số vàng được thưởng" style="text;html=1;align=center;verticalAlign=middle;resizable=0;points=[];autosize=1;strokeColor=none;fillColor=none;" vertex="1" parent="1">
          <mxGeometry x="545" y="258" width="190" height="30" as="geometry" />
        </mxCell>
        <mxCell id="qiV9-4BGO4FkPAIvBo5--29" value="Hiển thị thông báo&amp;nbsp;&amp;nbsp;&lt;br&gt;bên phải màn hình" style="html=1;verticalAlign=bottom;endArrow=open;dashed=1;endSize=8;curved=0;rounded=0;" edge="1" parent="1">
          <mxGeometry relative="1" as="geometry">
            <mxPoint x="535" y="310" as="sourcePoint" />
            <mxPoint x="339.6666666666665" y="310" as="targetPoint" />
          </mxGeometry>
        </mxCell>
      </root>
    </mxGraphModel>
  </diagram>
</mxfile>
